<svg width="800" height="400" viewBox="0 0 800 400" xmlns="http://www.w3.org/2000/svg">
  <rect width="800" height="400" fill="#F0F7F4"/>

  <!-- Ruta punteada -->
  <path d="M60 320 C 220 320, 220 180, 380 180 C 540 180, 540 100, 700 100"
        fill="none" stroke="#2563EB" stroke-width="4" stroke-dasharray="2 14" stroke-linecap="round" opacity="0.5"/>

  <!-- Paradas -->
  <circle cx="60" cy="320" r="8" fill="#2563EB"/>
  <circle cx="380" cy="180" r="8" fill="#0E9F6E"/>
  <circle cx="700" cy="100" r="8" fill="#2563EB"/>

  <!-- Bus principal -->
  <g transform="translate(190,210)">
    <rect x="0" y="20" width="220" height="90" rx="18" fill="#0E9F6E"/>
    <rect x="0" y="20" width="220" height="34" rx="18" fill="#0B7A55"/>
    <rect x="18" y="60" width="42" height="34" rx="4" fill="#E6F4EF"/>
    <rect x="70" y="60" width="42" height="34" rx="4" fill="#E6F4EF"/>
    <rect x="122" y="60" width="42" height="34" rx="4" fill="#E6F4EF"/>
    <rect x="174" y="60" width="30" height="34" rx="4" fill="#E6F4EF"/>
    <circle cx="46" cy="118" r="16" fill="#1B3A2F"/>
    <circle cx="46" cy="118" r="7" fill="#CBD5E1"/>
    <circle cx="174" cy="118" r="16" fill="#1B3A2F"/>
    <circle cx="174" cy="118" r="7" fill="#CBD5E1"/>
  </g>

  <!-- Nube minimal -->
  <g fill="#DCEFE7">
    <circle cx="620" cy="70" r="22"/>
    <circle cx="650" cy="62" r="16"/>
    <circle cx="600" cy="60" r="14"/>
  </g>

  <!-- Silueta persona esperando -->
  <g transform="translate(560,270)">
    <circle cx="10" cy="0" r="10" fill="#2563EB"/>
    <path d="M-8 60 C-8 30 4 18 10 18 C16 18 28 30 28 60 Z" fill="#2563EB"/>
  </g>
</svg>
